<?xml version="1.0" encoding="utf-8"?>
<!-- Generator: Adobe Illustrator 24.0.3, SVG Export Plug-In . SVG Version: 6.00 Build 0)  -->
<svg version="1.1" id="Layer_1" xmlns="http://www.w3.org/2000/svg" xmlns:xlink="http://www.w3.org/1999/xlink" x="0px" y="0px"
	 viewBox="0 0 823.2 848" style="enable-background:new 0 0 823.2 848;" xml:space="preserve">
<style type="text/css">
	.st0{fill:#FFFFFF;}
</style>
<title>DB Silhouette</title>
<g id="Layer_2_1_">
	<g id="Layer_1-2">
		<path class="st0" d="M557,472.5c-0.9,12.2-1.3,24.2-2.7,36c-1.4,11.2-3.4,22.3-5.9,33.3c-1.1,4.9-4.2,9.3-6.6,13.9
			c-4.7,8.8-9.2,17.7-14.4,26.2c-2.6,4.3-6.5,7.9-9.9,11.6c-5.9,6.3-11.4,13-18,18.5c-5.5,4.6-12.2,8-18.7,11.1
			c-6,2.8-12.6,4.1-18.8,6.6c-10.4,4.1-21.4,2.7-32.1,3.8c-6.4,0.7-12.9,1.1-19.4,1.1c-6.1,0-12.2-1.1-18.3-1
			c-23.5,0.3-45.3-6-65.6-17.6c-2.5-1.4-4.3-4-6.4-6c-5.3-5.3-10.1-11.1-15.9-15.7c-6.9-5.5-11.1-12.6-14.9-20.3
			c-2.3-4.6-4.2-9.5-7.2-13.7c-9-12.8-13.1-27.1-14.4-42.5c-1.2-14.9-2.5-29.8-3.8-45.1c-3.7-0.5-7.6-1.1-11.5-1.7
			c-25.8-4-41.3-19.2-47.4-44.3c-4.6-19.1-5.6-38.6-4.7-58s11.7-29.1,31.1-29.8c3.8-0.1,7.5,0,13.2,0c-8.9-7.2-7.8-15.5-7.1-24.2
			c0.7-8.5-5.2-18.8-13.9-27.7l3.9-1.2v-4.4l12.8,2.6c-0.8-2.3-1-4.4-1.9-5c-1.6-0.9-3.5-1.2-5.4-0.8c-4.2,1.5-7.9,2.7-11.2-1.6
			c-3.2-4.1-2.1-7.5,3-8.6c2.4-0.6,5.1-0.3,7.3-1.1c1.7-0.6,4.2-2.5,4.2-3.8c-0.1-2.5-1-4.9-2.7-6.8c-0.9-0.9-4.2-0.5-5.7,0.5
			c-3.2,2-5.8,4.9-8.8,7.2c-3.4,2.6-7.1,2.3-10.7,0.3c-3.9-2.1-6.4-6.1-6.5-10.5c-0.1-1.5,1.6-4,3.1-4.7c5.1-2.5,10.5-4.6,16.5-3.4
			c2.9,0.6,6.1,1.6,8.8,0.9c2.7-0.9,4.9-2.7,6.2-5.2c1.5-3.4-1.4-4.9-4.4-5.7c-9.4-2.2-8.1-8.9-3.4-15.8c-3.1-2-5-1.7-6.1,2.1
			c-0.5,1.7-1.2,3.4-2.2,4.9c-2.4,4-5.6,4.9-8.5,2.8c-3.3-2.4-4.3-7-2.2-10.5c3.9-6.2,10.6-8.2,16.4-11.4
			c7.1-3.9,12.6-9.1,14.1-17.4c0.3-1.9-0.6-4-1-6.1c-2,0.5-4.4,0.4-5.9,1.5c-2.3,2.1-4.4,4.4-6.1,7c-1.8,2.4-3.9,6.1-6.8,3.9
			c-1.6-1.2-2-6.6-0.7-8.8c2.6-4.5,6.5-8.3,10.3-11.9c2.9-2.7,3.2-2.4,2.1-7.6c-1.7,0.4-3.4,0.7-5,1.3c-5.9,2.1-10.2,0.2-12.6-5.7
			c-0.4-1.1-1.4-2-1.5-3.1c-0.3-2.2-1-5.2,0.1-6.5c1.2-1.4,4.2-1.5,6.5-1.7c1.9-0.1,4.1,1.1,5.9,0.6c1.6-0.4,2.9-2.2,4.3-3.5
			c-1.2-1.1-2.4-2.8-3.8-3.1c-5.4-1.2-10.4-3.3-12.5-8.6c-1-2.5,0-5.8,0-8.8c2.9,0.5,5.9,0.9,8.7,1.6c0.6,0.1,0.9,1.4,1.2,1.9
			c5.8-3.5,6-7.6,1.1-17.1l-3.4,4c-4-2.8-2.4-15.2,3-23.1l7.2,4.8c2.3-6,11.5-6,11.1-15c-2.4,0.7-4.6,1.1-6.6,1.9
			c-6.2,2.3-12.7,0.2-16-5.4c-2.2-3.9-1-6.8,2-9.7s5.5-1.3,7.3,0.9c6.1,7.4,13.7,4.1,20.7,2.8c4.5-0.8,8.7-3,12.9-4.9
			c5.6-2.5,6.6-4.7,5.2-10.7c-0.3-1.2-1.4-3-2.3-3.1c-1.5,0-3,0.7-4,1.8c-2.3,2.6-4,5.7-6.4,8.2c-1.5,1.4-3.3,2.4-5.3,2.8
			c-0.6,0.1-2.6-2.3-2.4-2.9c0.6-1.7,1.8-3.1,3.3-4.1c4.1-2.5,4.4-6.3,4.3-10.4c-0.2-1.6-0.4-3.3-0.7-4.9c-0.5-4,1.4-6.3,5.3-6.1
			c4.6,0.4,9.1,1,13.6,2c3.1,0.6,6,1.9,9.1,2.4c1.3,0.2,2.7-0.6,5-1.2c-2.8-2.4-5.2-3.7-6.4-5.7s-1.1-4.6-1.5-7
			c2.3-0.1,4.5,0,6.8,0.3c1.7,0.4,3.1,2,4.7,2.3s3.6-0.5,5.5-0.8c-0.5-1.6-0.5-3.5-1.4-4.9c-3.3-5.3-3.1-9,1.3-13s11-2.5,12,3.6
			c0.6,3.4,2.4,4.8,4.8,6.2c2.1,1.3,4.2,2.6,6.2,4c3.6,2.4,14-1.9,13.6-6c-0.1-2-2.8-3.9-4.6-6c-0.9,1-1.3,1.5-1.8,1.9
			c-2,1.9-3.5,5.6-7.1,3.3c-3.4-2.2-4.3-8.1-2.4-11.3c2.9-4.7,7.3-5.3,12.6-1.9c3.1,2.1,6.5,3.8,10,5.2c4.5,1.7,9,2.2,12.2-3
			c0.9-1.4,2.7-2.4,4.2-3.4c3.6-2.4,7.5-4.5,11-7.2c6.1-4.7,8.7-4.1,12.4,4c-3.8,1.7-7.5,3.7-11.5,4.9c-4.8,1.5-5.8,3.2-4,8
			c1.1,2.9,1.9,5.9,2.9,9.1c1.8-2.9,3-5.8,5-7.9c1.9-1.7,4.3-2.8,6.8-3.2c1.5-0.2,4.7,1.4,4.7,2.1c0,1.9-0.9,4.6-2.3,5.7
			c-4.7,3.7-5.2,6.2-1,9.9c2.7,2.3,4.6,1.9,9.1-2.9c3.3,3.8,6.5,7.6,10.6,12.3c0.5-3,0.9-5,1-7c0.2-3.3,1.7-5.8,5-5.5
			c1.2,0.1,2.2,3.2,2.9,5.1c0.4,1,0.1,2.3,0.2,3.5c0.6,5.1,2,5.7,6.1,2.7c3.5-2.5,7-1.4,8.8,2.4c1,2.2,2.2,4.4,3.5,6.8
			c4.4-1.9,5.8-5.1,5.5-9.5c-0.3-4.6-0.3-9.3,0-13.9c0.4-5.6,5.1-8.9,10.5-7.9c5.2,1,7.9,5.3,5.8,10.3c-1.9,4.2-4.5,8.1-6.5,12.2
			c-1.5,3.1-2.8,6.8,1.3,8.9c1.9,0.8,4.1,0.7,6-0.2c0.9-0.5,0.3-3.6,0.2-5.5c-0.1-2.4-0.2-4.8-0.4-7.1c2.5,0.6,5.2,0.8,7.5,1.8
			c5,2,5,6.9,6,11.2c0.5,2,1.7,3.8,2.6,5.6c3.9-2.3,7.1-3.8,9.8-5.9c1.8-1.5,3-3.5,3.6-5.7c0.2-0.7-3-2.2-4.6-3.3
			c-2-1.4-4.8-2.5-5.8-4.5c-0.8-1.6,0.6-4.3,1-6.5c2.1,0.5,4.4,0.5,6.3,1.5c4.1,2.1,7.7,5.2,11.9,7c5.2,2.4,7.1,6.2,6.4,11.5
			c-0.5,4.3-0.8,8.4,4.8,9.7c0.8,0.2,1.6,1.2,2.1,2c2.6,4,5.4,4,8.5,0.2c3.5,2.2,7,5.4,10.5,0.2c0.4-0.3,0.9-0.4,1.4-0.3
			c2.6,1.2,5.2,3.6,7.6,3.5c5.1-0.3,4,3.2,4.8,5.8c0.1,0.5,0.4,0.9,1.4,3.2c1.9-4.2,3.3-7.2,4.7-10.3s3-6,4.4-9.2l1.8,0.2l3.5,5.2
			c2.5-1.3,4.9-3,7.5-3.7c2.4-0.6,5.2-0.1,7.8-0.1l-1.1,7.2l-1.6,0.2c2.1,1.5,4.2,3.1,6.1,4.8c0.8,0.7,1.6,2.7,1.2,3.2
			c-0.8,1-2.6,2.2-3.5,1.9c-4-1.5-6.9,0.1-9.1,3.1c-3,4.3-6.6,8.5-5.8,14.3c0.1,1,1.9,2.8,2.1,2.7c1.5-0.7,3.6-1.7,4-3
			c1.5-5.4,5.1-7.5,10.3-7.4c3.5,0,7.3,1,10.4,0c2.8-0.9,4.8-4,7.2-6.2c3.5,5.2,2.3,12.2-2.7,15.9c-4.5,3.2-10.2,4.7-16,7.1
			c1.7,0.4,3.3,1.2,4.9,1.2c7.5,0.1,11.7,4.8,14.8,10.8c1.5,2.9-0.8,3.6-2.8,3.9c-2.3,0.3-4.7-0.3-7,0.2s-4.6,1.3-5.9,2.9
			c-1.1,1.3-0.7,3.9-0.9,5.9c1.7-0.3,3.5-0.5,5.2-0.9s3.6-1,5.4-1.5v6.7c1.7-0.8,3.7-1.1,5-2.3c8.1-6.8,19.3-5.9,25.3,2.6
			c1.1,1.6,0.8,4.2,1.1,6.3c-2,0-4.4,0.8-6-0.1c-4.7-2.5-8.7-2.2-11.8,2.2c-1.4,2-2.1,4.3-2.1,6.7c0,0.9,3.2,2,5.1,2.3
			c5,0.9,10,7.1,11.5,14.2c1.4,6.2,0.7,11.6-3.7,16.6c-2.8,3.2-4.6,7.4-7.5,12.2c1.2,1,3.2,2.7,5.2,4.3c2.4,1.9,5.2,3.5,7.2,5.8
			c0.9,1,0.9,3.7,0.2,5c-1.1,1.9-2.7,3-5.7,1.8c-3.6-1.5-8.4-4.9-11.3,1.9c-0.4,0.9-3.1,0.7-6.1,1.3c2.7,2.3,4.5,4.1,6.5,5.6
			c6.8,5.4,12.4,11.6,12.2,21.1c0,1.3-0.7,3.5-1.5,3.8c-1.5,0.3-3.2,0-4.4-1c-3.4-3.2-6.3-6.8-9.5-10.1c-1.7-1.7-3.8-2.9-6.6-5
			c0,2.3-0.3,3.4,0,4.1c2.3,4.2,4.4,8.7,7.4,12.5c2,2.5,5.1,4.3,8,5.7c2,1,4.8,0.2,6.8,1.2c1.7,1,3,2.7,3.5,4.6
			c0.2,0.9-1.9,2.9-3.3,3.4c-6.3,2.2-13.2,0.3-17.5-4.8l-3.9-4.6c-0.5,2.9-1.1,4.4-0.9,5.9c0.4,2.1,1,4.2,1.8,6.2
			c1.8,6.5,3.5,12.9-3.1,18.1c-1.2,1.3-1.8,3-1.6,4.8c1,6.2,2.6,12.3,3.7,18.5c0.4,2.3,0.5,5-0.3,7c-2.3,5.3-5.2,10.3-8.3,16.1
			l8.1,0.9l-7.1,11.3c6.3,0.4,12.2,0.4,18,1.2c14.8,2.2,23.6,11,24.6,25.8c1.5,21.8,0.5,43.6-5.5,64.8c-7,24.9-23.9,38.5-50.5,41.4
			C562,471.9,559.6,472.2,557,472.5z M263.8,411.6l0.9-0.1c1.7,8.2,3.4,16.5,5.2,24.8c4.9,21.9,9.9,43.8,18.9,64.5
			c3.3,7.7,7.5,14.7,14.5,19.9c6.5,4.8,13.2,9.7,18.3,15.9c10.5,12.6,25.3,17.9,38.9,25.5c2.2,1.2,5.2,1.3,7.8,1.3
			c6.5,0,13-0.4,19.5-0.5c15.4-0.1,30.9-0.6,46.3,0.2c14.7,0.8,28.5,0.5,41.5-8.3c9-6,18.7-10.8,25.4-19.7c1.9-2.6,4.2-4.8,6.9-6.5
			c13.7-8,23-19.6,27.6-34.6c5.4-17.8,10.4-35.7,15.2-53.7c2.5-9.5,4.2-19.3,6.2-29l0.8,0.1v33.2c13.7-0.1,25.3-8.7,30-22.5
			c4.5-13.1,5-26.8,4.3-40.5c-0.5-11.1-6.6-16.8-17.7-17.9c-3-0.3-6,0-9,0c-3.2,0-4.3,1.5-5,4.7c-2.2,10.9-4.1,21.9-7.7,32.4
			c-4.6,13.5-15.2,21-29.2,23.6c-4.4,0.8-8.9,1.2-13.4,1.6c-37.3,3.5-63.4-12.5-77.5-47c-3-7.4-6.4-14.6-10-21.7
			c-1.7-3.2-4-6.1-6.6-8.6c-3.7-3.5-7.2-3.6-10.6,0.1c-3.2,3.4-5.9,7.2-8,11.3c-3.9,7.9-6.9,16.2-10.7,24.1
			c-9.5,19.8-23.6,34.5-45.7,39.9c-13.6,3.3-27.4,2.7-41.1,0.6c-16.6-2.5-27.5-12-32.6-27.8c-2.1-7.2-3.8-14.5-5-21.8
			c-2.2-12.1-3.4-13.1-15.7-11.3c-11.5,1.6-17.2,7.9-17.2,20c0,9.1,0.6,18.3,1.9,27.4c0.8,5.6,2.5,11,5,16.1
			c5.5,11.3,15.3,16.2,27.7,17.6L263.8,411.6z M269.6,320.8c-0.8-0.2-0.5,0-0.1,0c1-0.1,2-0.4,2.9-0.5c38.8-7.7,77.4-8.8,115.2,4.7
			c18.4,6.6,36.5,4.7,54.2-1c29.7-9.5,59.7-11,90.3-7.4c8.8,1,17.6,2.7,26.5,4.1c0.2-0.7,0.5-1.3,0.4-1.6
			c-2.6-8.5-4.7-17.2-8.1-25.4c-1.8-4.4-5.1-8.3-11-9c-1.7-0.2-4-3.5-4.4-5.7c-0.9-5-0.5-10.3-1.2-15.4c-0.4-2.3-1.5-4.5-3.1-6.2
			c-3-3.3-6.7-5.9-9.5-9.3c-2.4-2.9-3.7-6.8-6.2-9.7c-2.3-2.6-5-4.8-8-6.7c-9.5-6.4-19.2-12.7-28.9-19c-0.7-0.4-1.6-0.6-2.4-0.4
			c-6.4,1.4-11.5-1.4-17-4.1c-4.1-1.8-8.3-3.3-12.6-4.4c-3.5-1.1-7.2-2.6-10.8-2.4c-5.2,0.4-10.2,1.7-14.2-3
			c-0.6-0.7-2.2-0.8-3.3-0.7c-4.5,0.1-8.9,0.6-13.4,1.3c-11.2,2.1-22.4,4.6-33.5,7c-4.5,1-9.4,1.2-11.8,6.2c-1.9,3.9-5,4.5-9.1,4.1
			s-8.8-1.1-12.3,0.4c-15.4,6.7-29,15.6-36.6,31.6c-2.6,5.5-6.5,9.8-12.9,11.5c-3.4,0.9-6.5,2.6-10.2,4.1c7,4.5,7,4.5,2.5,11
			c-4.1,6-6,12.8-7.2,19.9C272.5,303.3,271.1,311.8,269.6,320.8z M327.5,326.6c-12.6,1.2-22,1.8-31.4,3.2c-11,1.5-17.6,8-19.4,19.1
			c-1.8,11.7-0.8,23.6,2.8,34.9c3.2,10.4,8.9,17.5,18.5,22c11.9,5.5,24.1,3.8,36.3,2.1c24.4-3.4,39.1-17.6,43.8-41.7
			c3.4-17.7-2.5-29-19.8-34.1C347.5,328.9,335.9,328,327.5,326.6L327.5,326.6z M496.8,327c-13.8,0.5-27.3,1.2-40,7.5
			c-8.9,4.4-14.6,11.4-14.7,21.4c0,6.2,0.5,12.9,2.7,18.6c6.9,17.8,19.4,29.8,38.7,32.9c7.9,1.4,15.8,2,23.8,1.9
			c13.9-0.5,26-5.5,32.1-19c5.4-11.8,7-24.6,5.8-37.5c-1.3-14.1-8-21.3-22.2-23.3C514.4,328.2,505.5,327.8,496.8,327L496.8,327z"/>
		<path class="st0" d="M334.3,848H0.1v-4.8c0-29.8,0.1-59.6-0.1-89.4c0-3.7,1.3-5.6,4.3-7.4c41.3-24.2,84.7-44.2,128.2-63.9
			c45.8-20.8,91.6-41.5,135-67c1-0.5,2-1,3-1.3C291.9,692.1,313,769.8,334.3,848z"/>
		<path class="st0" d="M552.6,614c11.3,6.2,21.9,12.8,33,18.2c43.5,20.9,87.1,41.6,130.8,62.1c34.7,16.3,69.3,32.8,102.4,52.2
			c3.1,1.8,4.4,3.7,4.3,7.4c-0.2,29.8-0.1,59.6-0.1,89.4v4.7H489L552.6,614z"/>
	</g>
</g>
</svg>
